<?xml version="1.0" encoding="UTF-8"?>
<!-- <svg width="16px" height="16px" viewBox="0 0 16 16" version="1.1" xmlns="http://www.w3.org/2000/svg" xmlns:xlink="http://www.w3.org/1999/xlink">
    <title>Combined Shape</title>
    <desc>Created with Sketch.</desc>
    <g id="Symbols" stroke="none" stroke-width="1" fill="none" fill-rule="evenodd">
        <g id="Icons/Add" transform="translate(-4.000000, -4.000000)" fill="#27B5E8" fill-rule="nonzero">
            <g id="Group-7">
                <g id="Group-6" transform="translate(4.000000, 4.000000)">
                    <path d="M8.99999928,6.99999928 L14.9999989,6.99999928 C15.5522836,6.99999928 15.9999989,7.44771453 15.9999989,7.99999928 C15.9999989,8.55228403 15.5522836,8.99999928 14.9999989,8.99999928 L8.99999928,8.99999928 L8.99999928,14.9999989 C8.99999928,15.5522836 8.55228403,15.9999989 7.99999928,15.9999989 C7.44771453,15.9999989 6.99999928,15.5522836 6.99999928,14.9999989 L6.99999928,8.99999928 L0.9999997,8.99999928 C0.44771495,8.99999928 -3.00000003e-07,8.55228403 -3.00000003e-07,7.99999928 C-3.00000003e-07,7.44771453 0.44771495,6.99999928 0.9999997,6.99999928 L6.99999928,6.99999928 L6.99999928,0.9999997 C6.99999928,0.44771495 7.44771453,-3.00000003e-07 7.99999928,-3.00000003e-07 C8.55228403,-3.00000003e-07 8.99999928,0.44771495 8.99999928,0.9999997 L8.99999928,6.99999928 Z" id="Combined-Shape"></path>
                </g>
            </g>
        </g>
    </g>
</svg> -->
<svg version="1.2" preserveAspectRatio="none" viewBox="0 0 24 24" xmlns="http://www.w3.org/2000/svg" xmlns:xlink="http://www.w3.org/1999/xlink" class="ng-element" data-id="7175aea548d54717abbc59e4a5273721" style="opacity: 1; mix-blend-mode: normal; fill: rgb(255, 255, 255); width: 32px; height: 32px; transform: rotate(0deg) translate(1194px, 763px);"><g><path xmlns:default="http://www.w3.org/2000/svg" d="M12 2C6.48 2 2 6.48 2 12s4.48 10 10 10 10-4.48 10-10S17.52 2 12 2zm0 3c1.66 0 3 1.34 3 3s-1.34 3-3 3-3-1.34-3-3 1.34-3 3-3zm0 14.2c-2.5 0-4.71-1.28-6-3.22.03-1.99 4-3.08 6-3.08 1.99 0 5.97 1.09 6 3.08-1.29 1.94-3.5 3.22-6 3.22z" style="fill: rgb(255, 255, 255);"></path></g></svg>